<?xml version="1.0" encoding="UTF-8" standalone="no"?>
<!DOCTYPE svg PUBLIC "-//W3C//DTD SVG 1.1//EN"
 "http://www.w3.org/Graphics/SVG/1.1/DTD/svg11.dtd">
<!-- Generated by graphviz version 12.1.2 (20240928.0832)
 -->
<!-- Title: public.capture_snapshots Pages: 1 -->
<svg width="888pt" height="1284pt"
 viewBox="0.00 0.00 888.00 1283.60" xmlns="http://www.w3.org/2000/svg" xmlns:xlink="http://www.w3.org/1999/xlink">
<g id="graph0" class="graph" transform="scale(1 1) rotate(0) translate(4 1279.6)">
<title>public.capture_snapshots</title>
<polygon fill="white" stroke="none" points="-4,4 -4,-1279.6 884,-1279.6 884,4 -4,4"/>
<!-- public.capture_snapshots -->
<g id="node1" class="node">
<title>public.capture_snapshots</title>
<polygon fill="#efefef" stroke="none" points="253.3,-758.6 253.3,-794.2 573.25,-794.2 573.25,-758.6 253.3,-758.6"/>
<polygon fill="none" stroke="black" points="253.3,-758.6 253.3,-794.2 573.25,-794.2 573.25,-758.6 253.3,-758.6"/>
<text text-anchor="start" x="260.3" y="-772" font-family="Arial Bold" font-size="18.00">public.capture_snapshots</text>
<text text-anchor="start" x="441.76" y="-772" font-family="Arial" font-size="14.00">    </text>
<text text-anchor="start" x="472.88" y="-772" font-family="Arial" font-size="14.00" fill="#666666">[BASE TABLE]</text>
<polygon fill="none" stroke="black" points="253.3,-727.8 253.3,-758.6 573.25,-758.6 573.25,-727.8 253.3,-727.8"/>
<text text-anchor="start" x="260.3" y="-740" font-family="Arial" font-size="14.00">capture_id </text>
<text text-anchor="start" x="329.57" y="-740" font-family="Arial" font-size="14.00" fill="#666666">[text]</text>
<polygon fill="none" stroke="black" points="253.3,-697 253.3,-727.8 573.25,-727.8 573.25,-697 253.3,-697"/>
<text text-anchor="start" x="260.3" y="-709.2" font-family="Arial" font-size="14.00">session_id </text>
<text text-anchor="start" x="330.34" y="-709.2" font-family="Arial" font-size="14.00" fill="#666666">[text]</text>
<polygon fill="none" stroke="black" points="253.3,-666.2 253.3,-697 573.25,-697 573.25,-666.2 253.3,-666.2"/>
<text text-anchor="start" x="260.3" y="-678.4" font-family="Arial" font-size="14.00">audience_id </text>
<text text-anchor="start" x="339.7" y="-678.4" font-family="Arial" font-size="14.00" fill="#666666">[text]</text>
<polygon fill="none" stroke="black" points="253.3,-635.4 253.3,-666.2 573.25,-666.2 573.25,-635.4 253.3,-635.4"/>
<text text-anchor="start" x="260.3" y="-647.6" font-family="Arial" font-size="14.00">tile_id </text>
<text text-anchor="start" x="300.77" y="-647.6" font-family="Arial" font-size="14.00" fill="#666666">[text]</text>
<polygon fill="none" stroke="black" points="253.3,-604.6 253.3,-635.4 573.25,-635.4 573.25,-604.6 253.3,-604.6"/>
<text text-anchor="start" x="260.3" y="-616.8" font-family="Arial" font-size="14.00">t_ms </text>
<text text-anchor="start" x="294.53" y="-616.8" font-family="Arial" font-size="14.00" fill="#666666">[bigint]</text>
<polygon fill="none" stroke="black" points="253.3,-573.8 253.3,-604.6 573.25,-604.6 573.25,-573.8 253.3,-573.8"/>
<text text-anchor="start" x="260.3" y="-586" font-family="Arial" font-size="14.00">media_ref </text>
<text text-anchor="start" x="326.44" y="-586" font-family="Arial" font-size="14.00" fill="#666666">[text]</text>
<polygon fill="none" stroke="black" points="253.3,-543 253.3,-573.8 573.25,-573.8 573.25,-543 253.3,-543"/>
<text text-anchor="start" x="260.3" y="-555.2" font-family="Arial" font-size="14.00">upload_status </text>
<text text-anchor="start" x="351.37" y="-555.2" font-family="Arial" font-size="14.00" fill="#666666">[text]</text>
<polygon fill="none" stroke="black" points="253.3,-512.2 253.3,-543 573.25,-543 573.25,-512.2 253.3,-512.2"/>
<text text-anchor="start" x="260.3" y="-524.4" font-family="Arial" font-size="14.00">feature_snapshot </text>
<text text-anchor="start" x="372.38" y="-524.4" font-family="Arial" font-size="14.00" fill="#666666">[jsonb]</text>
<polygon fill="none" stroke="black" points="253.3,-481.4 253.3,-512.2 573.25,-512.2 573.25,-481.4 253.3,-481.4"/>
<text text-anchor="start" x="260.3" y="-493.6" font-family="Arial" font-size="14.00">created_at </text>
<text text-anchor="start" x="330.35" y="-493.6" font-family="Arial" font-size="14.00" fill="#666666">[timestamp with time zone]</text>
<polygon fill="none" stroke="black" points="253.3,-450.6 253.3,-481.4 573.25,-481.4 573.25,-450.6 253.3,-450.6"/>
<text text-anchor="start" x="260.3" y="-462.8" font-family="Arial" font-size="14.00">uploaded_at </text>
<text text-anchor="start" x="341.26" y="-462.8" font-family="Arial" font-size="14.00" fill="#666666">[timestamp with time zone]</text>
<polygon fill="none" stroke="black" stroke-width="3" points="251.8,-449.1 251.8,-795.7 574.75,-795.7 574.75,-449.1 251.8,-449.1"/>
</g>
<!-- public.sessions -->
<g id="node4" class="node">
<title>public.sessions</title>
<polygon fill="#efefef" stroke="none" points="286.43,-289.6 286.43,-325.2 540.11,-325.2 540.11,-289.6 286.43,-289.6"/>
<polygon fill="none" stroke="black" points="286.43,-289.6 286.43,-325.2 540.11,-325.2 540.11,-289.6 286.43,-289.6"/>
<text text-anchor="start" x="296.78" y="-303" font-family="Arial Bold" font-size="18.00">public.sessions</text>
<text text-anchor="start" x="405.28" y="-303" font-family="Arial" font-size="14.00">    </text>
<text text-anchor="start" x="436.4" y="-303" font-family="Arial" font-size="14.00" fill="#666666">[BASE TABLE]</text>
<polygon fill="none" stroke="black" points="286.43,-258.8 286.43,-289.6 540.11,-289.6 540.11,-258.8 286.43,-258.8"/>
<text text-anchor="start" x="293.43" y="-271" font-family="Arial" font-size="14.00">session_id </text>
<text text-anchor="start" x="363.47" y="-271" font-family="Arial" font-size="14.00" fill="#666666">[text]</text>
<polygon fill="none" stroke="black" points="286.43,-228 286.43,-258.8 540.11,-258.8 540.11,-228 286.43,-228"/>
<text text-anchor="start" x="293.43" y="-240.2" font-family="Arial" font-size="14.00">meeting_provider </text>
<text text-anchor="start" x="405.49" y="-240.2" font-family="Arial" font-size="14.00" fill="#666666">[text]</text>
<polygon fill="none" stroke="black" points="286.43,-197.2 286.43,-228 540.11,-228 540.11,-197.2 286.43,-197.2"/>
<text text-anchor="start" x="293.43" y="-209.4" font-family="Arial" font-size="14.00">status </text>
<text text-anchor="start" x="334.67" y="-209.4" font-family="Arial" font-size="14.00" fill="#666666">[text]</text>
<polygon fill="none" stroke="black" points="286.43,-166.4 286.43,-197.2 540.11,-197.2 540.11,-166.4 286.43,-166.4"/>
<text text-anchor="start" x="293.43" y="-178.6" font-family="Arial" font-size="14.00">consent </text>
<text text-anchor="start" x="346.36" y="-178.6" font-family="Arial" font-size="14.00" fill="#666666">[jsonb]</text>
<polygon fill="none" stroke="black" points="286.43,-135.6 286.43,-166.4 540.11,-166.4 540.11,-135.6 286.43,-135.6"/>
<text text-anchor="start" x="293.43" y="-147.8" font-family="Arial" font-size="14.00">started_at </text>
<text text-anchor="start" x="359.58" y="-147.8" font-family="Arial" font-size="14.00" fill="#666666">[timestamp with time zone]</text>
<polygon fill="none" stroke="black" points="286.43,-104.8 286.43,-135.6 540.11,-135.6 540.11,-104.8 286.43,-104.8"/>
<text text-anchor="start" x="293.43" y="-117" font-family="Arial" font-size="14.00">ended_at </text>
<text text-anchor="start" x="355.71" y="-117" font-family="Arial" font-size="14.00" fill="#666666">[timestamp with time zone]</text>
<polygon fill="none" stroke="black" points="286.43,-74 286.43,-104.8 540.11,-104.8 540.11,-74 286.43,-74"/>
<text text-anchor="start" x="293.43" y="-86.2" font-family="Arial" font-size="14.00">created_at </text>
<text text-anchor="start" x="363.48" y="-86.2" font-family="Arial" font-size="14.00" fill="#666666">[timestamp with time zone]</text>
<polygon fill="none" stroke="black" points="286.43,-43.2 286.43,-74 540.11,-74 540.11,-43.2 286.43,-43.2"/>
<text text-anchor="start" x="293.43" y="-55.4" font-family="Arial" font-size="14.00">updated_at </text>
<text text-anchor="start" x="367.39" y="-55.4" font-family="Arial" font-size="14.00" fill="#666666">[timestamp with time zone]</text>
</g>
<!-- public.capture_snapshots&#45;&gt;public.sessions -->
<g id="edge3" class="edge">
<title>public.capture_snapshots:session_id&#45;&gt;public.sessions:session_id</title>
<path fill="none" stroke="black" d="M584.61,-711.98C768.31,-696.71 732.9,-274.2 541.11,-274.2"/>
<polygon fill="black" stroke="black" points="584.57,-711.98 574.4,-707.89 579.24,-712.2 574.92,-712.37 574.92,-712.37 574.92,-712.37 579.24,-712.2 574.77,-716.88 584.57,-711.98"/>
<text text-anchor="start" x="581.25" y="-722.4" font-family="Arial" font-size="10.00">FOREIGN KEY (session_id) REFERENCES sessions(session_id)</text>
</g>
<!-- public.media_refs -->
<g id="node2" class="node">
<title>public.media_refs</title>
<polygon fill="#efefef" stroke="none" points="81.3,-1196.8 81.3,-1232.4 349.25,-1232.4 349.25,-1196.8 81.3,-1196.8"/>
<polygon fill="none" stroke="black" points="81.3,-1196.8 81.3,-1232.4 349.25,-1232.4 349.25,-1196.8 81.3,-1196.8"/>
<text text-anchor="start" x="88.3" y="-1210.2" font-family="Arial Bold" font-size="18.00">public.media_refs</text>
<text text-anchor="start" x="217.76" y="-1210.2" font-family="Arial" font-size="14.00">    </text>
<text text-anchor="start" x="248.87" y="-1210.2" font-family="Arial" font-size="14.00" fill="#666666">[BASE TABLE]</text>
<polygon fill="none" stroke="black" points="81.3,-1166 81.3,-1196.8 349.25,-1196.8 349.25,-1166 81.3,-1166"/>
<text text-anchor="start" x="88.3" y="-1178.2" font-family="Arial" font-size="14.00">id </text>
<text text-anchor="start" x="103.09" y="-1178.2" font-family="Arial" font-size="14.00" fill="#666666">[uuid]</text>
<polygon fill="none" stroke="black" points="81.3,-1135.2 81.3,-1166 349.25,-1166 349.25,-1135.2 81.3,-1135.2"/>
<text text-anchor="start" x="88.3" y="-1147.4" font-family="Arial" font-size="14.00">session_id </text>
<text text-anchor="start" x="158.34" y="-1147.4" font-family="Arial" font-size="14.00" fill="#666666">[text]</text>
<polygon fill="none" stroke="black" points="81.3,-1104.4 81.3,-1135.2 349.25,-1135.2 349.25,-1104.4 81.3,-1104.4"/>
<text text-anchor="start" x="88.3" y="-1116.6" font-family="Arial" font-size="14.00">capture_id </text>
<text text-anchor="start" x="157.57" y="-1116.6" font-family="Arial" font-size="14.00" fill="#666666">[text]</text>
<polygon fill="none" stroke="black" points="81.3,-1073.6 81.3,-1104.4 349.25,-1104.4 349.25,-1073.6 81.3,-1073.6"/>
<text text-anchor="start" x="88.3" y="-1085.8" font-family="Arial" font-size="14.00">media_ref </text>
<text text-anchor="start" x="154.45" y="-1085.8" font-family="Arial" font-size="14.00" fill="#666666">[text]</text>
<polygon fill="none" stroke="black" points="81.3,-1042.8 81.3,-1073.6 349.25,-1073.6 349.25,-1042.8 81.3,-1042.8"/>
<text text-anchor="start" x="88.3" y="-1055" font-family="Arial" font-size="14.00">purpose </text>
<text text-anchor="start" x="142.78" y="-1055" font-family="Arial" font-size="14.00" fill="#666666">[text]</text>
<polygon fill="none" stroke="black" points="81.3,-1012 81.3,-1042.8 349.25,-1042.8 349.25,-1012 81.3,-1012"/>
<text text-anchor="start" x="88.3" y="-1024.2" font-family="Arial" font-size="14.00">content_type </text>
<text text-anchor="start" x="172.36" y="-1024.2" font-family="Arial" font-size="14.00" fill="#666666">[text]</text>
<polygon fill="none" stroke="black" points="81.3,-981.2 81.3,-1012 349.25,-1012 349.25,-981.2 81.3,-981.2"/>
<text text-anchor="start" x="88.3" y="-993.4" font-family="Arial" font-size="14.00">upload_status </text>
<text text-anchor="start" x="179.37" y="-993.4" font-family="Arial" font-size="14.00" fill="#666666">[text]</text>
<polygon fill="none" stroke="black" points="81.3,-950.4 81.3,-981.2 349.25,-981.2 349.25,-950.4 81.3,-950.4"/>
<text text-anchor="start" x="88.3" y="-962.6" font-family="Arial" font-size="14.00">created_at </text>
<text text-anchor="start" x="158.35" y="-962.6" font-family="Arial" font-size="14.00" fill="#666666">[timestamp with time zone]</text>
<polygon fill="none" stroke="black" points="81.3,-919.6 81.3,-950.4 349.25,-950.4 349.25,-919.6 81.3,-919.6"/>
<text text-anchor="start" x="88.3" y="-931.8" font-family="Arial" font-size="14.00">uploaded_at </text>
<text text-anchor="start" x="169.27" y="-931.8" font-family="Arial" font-size="14.00" fill="#666666">[timestamp with time zone]</text>
</g>
<!-- public.media_refs&#45;&gt;public.capture_snapshots -->
<g id="edge1" class="edge">
<title>public.media_refs:capture_id&#45;&gt;public.capture_snapshots:capture_id</title>
<path fill="none" stroke="black" d="M360.26,-1117.12C401,-1093.32 378.03,-917.76 349.25,-876.4 323.23,-839.02 279.43,-877.7 253.3,-840.4 228.51,-805.02 209.1,-743.2 252.3,-743.2"/>
<polygon fill="black" stroke="black" points="360.23,-1117.13 349.41,-1115.37 355.08,-1118.51 350.89,-1119.63 350.89,-1119.63 350.89,-1119.63 355.08,-1118.51 351.73,-1124.06 360.23,-1117.13"/>
<text text-anchor="start" x="7" y="-1129.8" font-family="Arial" font-size="10.00">FOREIGN KEY (capture_id) REFERENCES capture_snapshots(capture_id)</text>
</g>
<!-- public.visual_summaries -->
<g id="node3" class="node">
<title>public.visual_summaries</title>
<polygon fill="#efefef" stroke="none" points="453.29,-1181.4 453.29,-1217 771.25,-1217 771.25,-1181.4 453.29,-1181.4"/>
<polygon fill="none" stroke="black" points="453.29,-1181.4 453.29,-1217 771.25,-1217 771.25,-1181.4 453.29,-1181.4"/>
<text text-anchor="start" x="460.29" y="-1194.8" font-family="Arial Bold" font-size="18.00">public.visual_summaries</text>
<text text-anchor="start" x="639.77" y="-1194.8" font-family="Arial" font-size="14.00">    </text>
<text text-anchor="start" x="670.88" y="-1194.8" font-family="Arial" font-size="14.00" fill="#666666">[BASE TABLE]</text>
<polygon fill="none" stroke="black" points="453.29,-1150.6 453.29,-1181.4 771.25,-1181.4 771.25,-1150.6 453.29,-1150.6"/>
<text text-anchor="start" x="460.29" y="-1162.8" font-family="Arial" font-size="14.00">id </text>
<text text-anchor="start" x="475.08" y="-1162.8" font-family="Arial" font-size="14.00" fill="#666666">[uuid]</text>
<polygon fill="none" stroke="black" points="453.29,-1119.8 453.29,-1150.6 771.25,-1150.6 771.25,-1119.8 453.29,-1119.8"/>
<text text-anchor="start" x="460.29" y="-1132" font-family="Arial" font-size="14.00">session_id </text>
<text text-anchor="start" x="530.33" y="-1132" font-family="Arial" font-size="14.00" fill="#666666">[text]</text>
<polygon fill="none" stroke="black" points="453.29,-1089 453.29,-1119.8 771.25,-1119.8 771.25,-1089 453.29,-1089"/>
<text text-anchor="start" x="460.29" y="-1101.2" font-family="Arial" font-size="14.00">audience_id </text>
<text text-anchor="start" x="539.69" y="-1101.2" font-family="Arial" font-size="14.00" fill="#666666">[text]</text>
<polygon fill="none" stroke="black" points="453.29,-1058.2 453.29,-1089 771.25,-1089 771.25,-1058.2 453.29,-1058.2"/>
<text text-anchor="start" x="460.29" y="-1070.4" font-family="Arial" font-size="14.00">capture_id </text>
<text text-anchor="start" x="529.56" y="-1070.4" font-family="Arial" font-size="14.00" fill="#666666">[text]</text>
<polygon fill="none" stroke="black" points="453.29,-1027.4 453.29,-1058.2 771.25,-1058.2 771.25,-1027.4 453.29,-1027.4"/>
<text text-anchor="start" x="460.29" y="-1039.6" font-family="Arial" font-size="14.00">media_ref </text>
<text text-anchor="start" x="526.44" y="-1039.6" font-family="Arial" font-size="14.00" fill="#666666">[text]</text>
<polygon fill="none" stroke="black" points="453.29,-996.6 453.29,-1027.4 771.25,-1027.4 771.25,-996.6 453.29,-996.6"/>
<text text-anchor="start" x="460.29" y="-1008.8" font-family="Arial" font-size="14.00">visual_summary </text>
<text text-anchor="start" x="565.32" y="-1008.8" font-family="Arial" font-size="14.00" fill="#666666">[jsonb]</text>
<polygon fill="none" stroke="black" points="453.29,-965.8 453.29,-996.6 771.25,-996.6 771.25,-965.8 453.29,-965.8"/>
<text text-anchor="start" x="460.29" y="-978" font-family="Arial" font-size="14.00">confidence </text>
<text text-anchor="start" x="531.9" y="-978" font-family="Arial" font-size="14.00" fill="#666666">[double precision]</text>
<polygon fill="none" stroke="black" points="453.29,-935 453.29,-965.8 771.25,-965.8 771.25,-935 453.29,-935"/>
<text text-anchor="start" x="460.29" y="-947.2" font-family="Arial" font-size="14.00">created_at </text>
<text text-anchor="start" x="530.34" y="-947.2" font-family="Arial" font-size="14.00" fill="#666666">[timestamp with time zone]</text>
</g>
<!-- public.visual_summaries&#45;&gt;public.capture_snapshots -->
<g id="edge2" class="edge">
<title>public.visual_summaries:capture_id&#45;&gt;public.capture_snapshots:capture_id</title>
<path fill="none" stroke="black" d="M442.11,-1072.92C374.84,-1063.41 410.63,-956.11 453.29,-891.8 485.36,-843.47 541.07,-888.66 573.25,-840.4 597.22,-804.46 617.45,-743.2 574.25,-743.2"/>
<polygon fill="black" stroke="black" points="441.98,-1072.91 451.66,-1078.07 447.3,-1073.27 451.62,-1073.56 451.62,-1073.56 451.62,-1073.56 447.3,-1073.27 452.26,-1069.09 441.98,-1072.91"/>
<text text-anchor="start" x="459.29" y="-1083.6" font-family="Arial" font-size="10.00">FOREIGN KEY (capture_id) REFERENCES capture_snapshots(capture_id)</text>
</g>
</g>
</svg>
