<?xml version="1.0" encoding="UTF-8" standalone="no"?>
<!DOCTYPE svg PUBLIC "-//W3C//DTD SVG 1.1//EN"
 "http://www.w3.org/Graphics/SVG/1.1/DTD/svg11.dtd">
<!-- Generated by graphviz version 12.1.2 (20240928.0832)
 -->
<!-- Title: public.media_refs Pages: 1 -->
<svg width="934pt" height="879pt"
 viewBox="0.00 0.00 933.94 879.20" xmlns="http://www.w3.org/2000/svg" xmlns:xlink="http://www.w3.org/1999/xlink">
<g id="graph0" class="graph" transform="scale(1 1) rotate(0) translate(4 875.2)">
<title>public.media_refs</title>
<polygon fill="white" stroke="none" points="-4,4 -4,-875.2 929.94,-875.2 929.94,4 -4,4"/>
<!-- public.media_refs -->
<g id="node1" class="node">
<title>public.media_refs</title>
<polygon fill="#efefef" stroke="none" points="306.75,-789.4 306.75,-825 574.7,-825 574.7,-789.4 306.75,-789.4"/>
<polygon fill="none" stroke="black" points="306.75,-789.4 306.75,-825 574.7,-825 574.7,-789.4 306.75,-789.4"/>
<text text-anchor="start" x="313.75" y="-802.8" font-family="Arial Bold" font-size="18.00">public.media_refs</text>
<text text-anchor="start" x="443.21" y="-802.8" font-family="Arial" font-size="14.00">    </text>
<text text-anchor="start" x="474.32" y="-802.8" font-family="Arial" font-size="14.00" fill="#666666">[BASE TABLE]</text>
<polygon fill="none" stroke="black" points="306.75,-758.6 306.75,-789.4 574.7,-789.4 574.7,-758.6 306.75,-758.6"/>
<text text-anchor="start" x="313.75" y="-770.8" font-family="Arial" font-size="14.00">id </text>
<text text-anchor="start" x="328.54" y="-770.8" font-family="Arial" font-size="14.00" fill="#666666">[uuid]</text>
<polygon fill="none" stroke="black" points="306.75,-727.8 306.75,-758.6 574.7,-758.6 574.7,-727.8 306.75,-727.8"/>
<text text-anchor="start" x="313.75" y="-740" font-family="Arial" font-size="14.00">session_id </text>
<text text-anchor="start" x="383.79" y="-740" font-family="Arial" font-size="14.00" fill="#666666">[text]</text>
<polygon fill="none" stroke="black" points="306.75,-697 306.75,-727.8 574.7,-727.8 574.7,-697 306.75,-697"/>
<text text-anchor="start" x="313.75" y="-709.2" font-family="Arial" font-size="14.00">capture_id </text>
<text text-anchor="start" x="383.02" y="-709.2" font-family="Arial" font-size="14.00" fill="#666666">[text]</text>
<polygon fill="none" stroke="black" points="306.75,-666.2 306.75,-697 574.7,-697 574.7,-666.2 306.75,-666.2"/>
<text text-anchor="start" x="313.75" y="-678.4" font-family="Arial" font-size="14.00">media_ref </text>
<text text-anchor="start" x="379.9" y="-678.4" font-family="Arial" font-size="14.00" fill="#666666">[text]</text>
<polygon fill="none" stroke="black" points="306.75,-635.4 306.75,-666.2 574.7,-666.2 574.7,-635.4 306.75,-635.4"/>
<text text-anchor="start" x="313.75" y="-647.6" font-family="Arial" font-size="14.00">purpose </text>
<text text-anchor="start" x="368.24" y="-647.6" font-family="Arial" font-size="14.00" fill="#666666">[text]</text>
<polygon fill="none" stroke="black" points="306.75,-604.6 306.75,-635.4 574.7,-635.4 574.7,-604.6 306.75,-604.6"/>
<text text-anchor="start" x="313.75" y="-616.8" font-family="Arial" font-size="14.00">content_type </text>
<text text-anchor="start" x="397.81" y="-616.8" font-family="Arial" font-size="14.00" fill="#666666">[text]</text>
<polygon fill="none" stroke="black" points="306.75,-573.8 306.75,-604.6 574.7,-604.6 574.7,-573.8 306.75,-573.8"/>
<text text-anchor="start" x="313.75" y="-586" font-family="Arial" font-size="14.00">upload_status </text>
<text text-anchor="start" x="404.82" y="-586" font-family="Arial" font-size="14.00" fill="#666666">[text]</text>
<polygon fill="none" stroke="black" points="306.75,-543 306.75,-573.8 574.7,-573.8 574.7,-543 306.75,-543"/>
<text text-anchor="start" x="313.75" y="-555.2" font-family="Arial" font-size="14.00">created_at </text>
<text text-anchor="start" x="383.8" y="-555.2" font-family="Arial" font-size="14.00" fill="#666666">[timestamp with time zone]</text>
<polygon fill="none" stroke="black" points="306.75,-512.2 306.75,-543 574.7,-543 574.7,-512.2 306.75,-512.2"/>
<text text-anchor="start" x="313.75" y="-524.4" font-family="Arial" font-size="14.00">uploaded_at </text>
<text text-anchor="start" x="394.72" y="-524.4" font-family="Arial" font-size="14.00" fill="#666666">[timestamp with time zone]</text>
<polygon fill="none" stroke="black" stroke-width="3" points="305.25,-510.7 305.25,-826.5 576.2,-826.5 576.2,-510.7 305.25,-510.7"/>
</g>
<!-- public.sessions -->
<g id="node2" class="node">
<title>public.sessions</title>
<polygon fill="#efefef" stroke="none" points="118.88,-320.4 118.88,-356 372.57,-356 372.57,-320.4 118.88,-320.4"/>
<polygon fill="none" stroke="black" points="118.88,-320.4 118.88,-356 372.57,-356 372.57,-320.4 118.88,-320.4"/>
<text text-anchor="start" x="129.23" y="-333.8" font-family="Arial Bold" font-size="18.00">public.sessions</text>
<text text-anchor="start" x="237.73" y="-333.8" font-family="Arial" font-size="14.00">    </text>
<text text-anchor="start" x="268.85" y="-333.8" font-family="Arial" font-size="14.00" fill="#666666">[BASE TABLE]</text>
<polygon fill="none" stroke="black" points="118.88,-289.6 118.88,-320.4 372.57,-320.4 372.57,-289.6 118.88,-289.6"/>
<text text-anchor="start" x="125.88" y="-301.8" font-family="Arial" font-size="14.00">session_id </text>
<text text-anchor="start" x="195.92" y="-301.8" font-family="Arial" font-size="14.00" fill="#666666">[text]</text>
<polygon fill="none" stroke="black" points="118.88,-258.8 118.88,-289.6 372.57,-289.6 372.57,-258.8 118.88,-258.8"/>
<text text-anchor="start" x="125.88" y="-271" font-family="Arial" font-size="14.00">meeting_provider </text>
<text text-anchor="start" x="237.95" y="-271" font-family="Arial" font-size="14.00" fill="#666666">[text]</text>
<polygon fill="none" stroke="black" points="118.88,-228 118.88,-258.8 372.57,-258.8 372.57,-228 118.88,-228"/>
<text text-anchor="start" x="125.88" y="-240.2" font-family="Arial" font-size="14.00">status </text>
<text text-anchor="start" x="167.12" y="-240.2" font-family="Arial" font-size="14.00" fill="#666666">[text]</text>
<polygon fill="none" stroke="black" points="118.88,-197.2 118.88,-228 372.57,-228 372.57,-197.2 118.88,-197.2"/>
<text text-anchor="start" x="125.88" y="-209.4" font-family="Arial" font-size="14.00">consent </text>
<text text-anchor="start" x="178.81" y="-209.4" font-family="Arial" font-size="14.00" fill="#666666">[jsonb]</text>
<polygon fill="none" stroke="black" points="118.88,-166.4 118.88,-197.2 372.57,-197.2 372.57,-166.4 118.88,-166.4"/>
<text text-anchor="start" x="125.88" y="-178.6" font-family="Arial" font-size="14.00">started_at </text>
<text text-anchor="start" x="192.04" y="-178.6" font-family="Arial" font-size="14.00" fill="#666666">[timestamp with time zone]</text>
<polygon fill="none" stroke="black" points="118.88,-135.6 118.88,-166.4 372.57,-166.4 372.57,-135.6 118.88,-135.6"/>
<text text-anchor="start" x="125.88" y="-147.8" font-family="Arial" font-size="14.00">ended_at </text>
<text text-anchor="start" x="188.17" y="-147.8" font-family="Arial" font-size="14.00" fill="#666666">[timestamp with time zone]</text>
<polygon fill="none" stroke="black" points="118.88,-104.8 118.88,-135.6 372.57,-135.6 372.57,-104.8 118.88,-104.8"/>
<text text-anchor="start" x="125.88" y="-117" font-family="Arial" font-size="14.00">created_at </text>
<text text-anchor="start" x="195.93" y="-117" font-family="Arial" font-size="14.00" fill="#666666">[timestamp with time zone]</text>
<polygon fill="none" stroke="black" points="118.88,-74 118.88,-104.8 372.57,-104.8 372.57,-74 118.88,-74"/>
<text text-anchor="start" x="125.88" y="-86.2" font-family="Arial" font-size="14.00">updated_at </text>
<text text-anchor="start" x="199.84" y="-86.2" font-family="Arial" font-size="14.00" fill="#666666">[timestamp with time zone]</text>
</g>
<!-- public.media_refs&#45;&gt;public.sessions -->
<g id="edge1" class="edge">
<title>public.media_refs:session_id&#45;&gt;public.sessions:session_id</title>
<path fill="none" stroke="black" d="M295.44,-742.78C187.05,-733.67 261.2,-576.58 306.75,-466 322.63,-427.46 356.56,-437.68 372.57,-399.2 388.65,-360.54 415.43,-305 373.57,-305"/>
<polygon fill="black" stroke="black" points="295.43,-742.78 305.24,-747.68 300.76,-743 305.08,-743.17 305.08,-743.17 305.08,-743.17 300.76,-743 305.6,-738.69 295.43,-742.78"/>
<text text-anchor="start" x="7" y="-753.2" font-family="Arial" font-size="10.00">FOREIGN KEY (session_id) REFERENCES sessions(session_id)</text>
</g>
<!-- public.capture_snapshots -->
<g id="node3" class="node">
<title>public.capture_snapshots</title>
<polygon fill="#efefef" stroke="none" points="476.75,-351.2 476.75,-386.8 796.7,-386.8 796.7,-351.2 476.75,-351.2"/>
<polygon fill="none" stroke="black" points="476.75,-351.2 476.75,-386.8 796.7,-386.8 796.7,-351.2 476.75,-351.2"/>
<text text-anchor="start" x="483.75" y="-364.6" font-family="Arial Bold" font-size="18.00">public.capture_snapshots</text>
<text text-anchor="start" x="665.21" y="-364.6" font-family="Arial" font-size="14.00">    </text>
<text text-anchor="start" x="696.33" y="-364.6" font-family="Arial" font-size="14.00" fill="#666666">[BASE TABLE]</text>
<polygon fill="none" stroke="black" points="476.75,-320.4 476.75,-351.2 796.7,-351.2 796.7,-320.4 476.75,-320.4"/>
<text text-anchor="start" x="483.75" y="-332.6" font-family="Arial" font-size="14.00">capture_id </text>
<text text-anchor="start" x="553.02" y="-332.6" font-family="Arial" font-size="14.00" fill="#666666">[text]</text>
<polygon fill="none" stroke="black" points="476.75,-289.6 476.75,-320.4 796.7,-320.4 796.7,-289.6 476.75,-289.6"/>
<text text-anchor="start" x="483.75" y="-301.8" font-family="Arial" font-size="14.00">session_id </text>
<text text-anchor="start" x="553.79" y="-301.8" font-family="Arial" font-size="14.00" fill="#666666">[text]</text>
<polygon fill="none" stroke="black" points="476.75,-258.8 476.75,-289.6 796.7,-289.6 796.7,-258.8 476.75,-258.8"/>
<text text-anchor="start" x="483.75" y="-271" font-family="Arial" font-size="14.00">audience_id </text>
<text text-anchor="start" x="563.15" y="-271" font-family="Arial" font-size="14.00" fill="#666666">[text]</text>
<polygon fill="none" stroke="black" points="476.75,-228 476.75,-258.8 796.7,-258.8 796.7,-228 476.75,-228"/>
<text text-anchor="start" x="483.75" y="-240.2" font-family="Arial" font-size="14.00">tile_id </text>
<text text-anchor="start" x="524.22" y="-240.2" font-family="Arial" font-size="14.00" fill="#666666">[text]</text>
<polygon fill="none" stroke="black" points="476.75,-197.2 476.75,-228 796.7,-228 796.7,-197.2 476.75,-197.2"/>
<text text-anchor="start" x="483.75" y="-209.4" font-family="Arial" font-size="14.00">t_ms </text>
<text text-anchor="start" x="517.98" y="-209.4" font-family="Arial" font-size="14.00" fill="#666666">[bigint]</text>
<polygon fill="none" stroke="black" points="476.75,-166.4 476.75,-197.2 796.7,-197.2 796.7,-166.4 476.75,-166.4"/>
<text text-anchor="start" x="483.75" y="-178.6" font-family="Arial" font-size="14.00">media_ref </text>
<text text-anchor="start" x="549.9" y="-178.6" font-family="Arial" font-size="14.00" fill="#666666">[text]</text>
<polygon fill="none" stroke="black" points="476.75,-135.6 476.75,-166.4 796.7,-166.4 796.7,-135.6 476.75,-135.6"/>
<text text-anchor="start" x="483.75" y="-147.8" font-family="Arial" font-size="14.00">upload_status </text>
<text text-anchor="start" x="574.82" y="-147.8" font-family="Arial" font-size="14.00" fill="#666666">[text]</text>
<polygon fill="none" stroke="black" points="476.75,-104.8 476.75,-135.6 796.7,-135.6 796.7,-104.8 476.75,-104.8"/>
<text text-anchor="start" x="483.75" y="-117" font-family="Arial" font-size="14.00">feature_snapshot </text>
<text text-anchor="start" x="595.83" y="-117" font-family="Arial" font-size="14.00" fill="#666666">[jsonb]</text>
<polygon fill="none" stroke="black" points="476.75,-74 476.75,-104.8 796.7,-104.8 796.7,-74 476.75,-74"/>
<text text-anchor="start" x="483.75" y="-86.2" font-family="Arial" font-size="14.00">created_at </text>
<text text-anchor="start" x="553.8" y="-86.2" font-family="Arial" font-size="14.00" fill="#666666">[timestamp with time zone]</text>
<polygon fill="none" stroke="black" points="476.75,-43.2 476.75,-74 796.7,-74 796.7,-43.2 476.75,-43.2"/>
<text text-anchor="start" x="483.75" y="-55.4" font-family="Arial" font-size="14.00">uploaded_at </text>
<text text-anchor="start" x="564.72" y="-55.4" font-family="Arial" font-size="14.00" fill="#666666">[timestamp with time zone]</text>
</g>
<!-- public.media_refs&#45;&gt;public.capture_snapshots -->
<g id="edge2" class="edge">
<title>public.media_refs:capture_id&#45;&gt;public.capture_snapshots:capture_id</title>
<path fill="none" stroke="black" d="M586.09,-711.89C682.03,-702.07 635.46,-552.7 574.7,-466 548.08,-428.02 503.49,-467.89 476.75,-430 452.61,-395.79 433.88,-335.8 475.75,-335.8"/>
<polygon fill="black" stroke="black" points="586.02,-711.89 575.81,-707.89 580.69,-712.15 576.36,-712.37 576.36,-712.37 576.36,-712.37 580.69,-712.15 576.25,-716.88 586.02,-711.89"/>
<text text-anchor="start" x="582.7" y="-722.4" font-family="Arial" font-size="10.00">FOREIGN KEY (capture_id) REFERENCES capture_snapshots(capture_id)</text>
</g>
</g>
</svg>
